<?xml version="1.0" encoding="utf-8"?>
<!-- Generator: Adobe Illustrator 28.2.0, SVG Export Plug-In . SVG Version: 6.00 Build 0)  -->
<svg version="1.1" id="Layer_1" xmlns="http://www.w3.org/2000/svg" xmlns:xlink="http://www.w3.org/1999/xlink" x="0px" y="0px"
	 viewBox="0 0 800 800" style="enable-background:new 0 0 800 800;" xml:space="preserve">
<style type="text/css">
	.st0{fill:#FFFFFF;}
</style>
<g id="_xD83D__xDD0D_-Product-Icons">
	<g id="ic_fluent_arrow_right_circle_24_regular">
		<path id="_xD83C__xDFA8_-Color" class="st0" d="M400,66.7c184.1,0,333.3,149.2,333.3,333.3S584.1,733.4,400,733.4
			S66.7,584.1,66.7,400S215.9,66.7,400,66.7z M400,116.7c-156.5,0-283.3,126.9-283.3,283.3S243.5,683.4,400,683.4
			S683.4,556.5,683.4,400S556.5,116.7,400,116.7z M388.3,251.8l2.4-2.8c8.9-8.9,22.8-9.7,32.6-2.4l2.8,2.4l133.4,133.4
			c8.9,8.9,9.7,22.8,2.4,32.6l-2.4,2.8L426,551c-9.8,9.8-25.6,9.8-35.4,0c-8.9-8.9-9.7-22.8-2.4-32.6l2.4-2.8l90.7-90.7l-223.1,0
			c-12.7,0-23.1-9.4-24.8-21.6l-0.2-3.4c0-12.7,9.4-23.1,21.6-24.8l3.4-0.2l223,0l-90.6-90.6C381.8,275.5,381,261.6,388.3,251.8
			l2.4-2.8L388.3,251.8z"/>
	</g>
</g>
</svg>
