<?xml version="1.0" encoding="utf-8"?>
<!-- Generator: Adobe Illustrator 28.2.0, SVG Export Plug-In . SVG Version: 6.00 Build 0)  -->
<svg version="1.1" id="Capa_1" xmlns="http://www.w3.org/2000/svg" xmlns:xlink="http://www.w3.org/1999/xlink" x="0px" y="0px"
	 viewBox="0 0 800 800" style="enable-background:new 0 0 800 800;" xml:space="preserve">
<style type="text/css">
	.st0{fill:#FFFFFF;}
</style>
<g>
	<path class="st0" d="M534,254.3h-17.9l-6.6-21.8c-6.3-20.6-25-34.5-46.5-34.5H346.1c-21.6,0-40.2,13.9-46.5,34.5l-6.6,21.8h-27
		c-58.9,0-106.8,47.9-106.8,106.9v134c0,58.9,47.9,106.8,106.8,106.8h268c58.9,0,106.8-47.9,106.8-106.8v-134
		C640.8,302.2,592.9,254.3,534,254.3z M601.9,495.1c0,37.4-30.5,67.9-67.9,67.9H266c-37.4,0-67.9-30.5-67.9-67.9v-134
		c0-37.4,30.5-67.9,67.9-67.9h55.8l15-49.5c1.2-4.1,5-6.8,9.2-6.8h117c4.3,0,8,2.8,9.2,6.9l15,49.5H534c37.4,0,67.9,30.5,67.9,67.9
		V495.1L601.9,495.1z"/>
	<path class="st0" d="M400.8,324.1c-57.4,0-104.1,46.7-104.1,104.1s46.7,104.1,104.1,104.1s104.1-46.7,104.1-104.1
		S458.2,324.1,400.8,324.1z M400.8,493.4c-35.9,0-65.2-29.2-65.2-65.2c0-35.9,29.2-65.2,65.2-65.2c35.9,0,65.2,29.2,65.2,65.2
		C466,464.1,436.7,493.4,400.8,493.4z"/>
</g>
</svg>
